<svg xmlns="http://www.w3.org/2000/svg" fill="black" class="w-[89px] shrink-0 lg:w-[150px] " viewBox="0 0 89.306 29.285"><g id="kapiva_logo_header" transform="translate(-54.694 -56.883)"><path id="Path_19"  d="M82.987,68.383H80.7l-1.524,4.111v0h5.352v0Z"></path><path id="Path_20" data-name="Path 20" d="M97.284,68.318c-1.034,0-3.48.029-4.4.029v3.524h4.339c1.631,0,2.562-.845,2.562-1.849C99.788,68.944,99,68.318,97.284,68.318Z"></path><path id="Path_21" data-name="Path 21" d="M131.495,68.383h-2.286l-1.524,4.111v0h5.352v0Z"></path><path id="Path_22" data-name="Path 22" d="M142.1,72.831a5.61,5.61,0,0,0-3.066-1.305,5.132,5.132,0,0,0,3.629-1.787,7.4,7.4,0,0,0,1.319-4.638V56.883H101.151c0,2.542-1.4,4.949-5.027,4.949V56.883H54.694V86.168h41.43V81.22c3.631,0,5.027,2.406,5.027,4.948h42.828V77.951A5.77,5.77,0,0,0,142.1,72.831ZM72.533,75.875a1.375,1.375,0,0,0,.5-.1l.043,1.165c-2.329.757-3.756-1.66-6.275-4.893l-2.854,2.141V76.88H62.749V67.2h1.194v5.576L71.354,67.2h1.864l-5.431,4.091C69.752,74.273,71.34,75.875,72.533,75.875Zm14.429,1H86.17l-1.2-3.195H78.739l-1.181,3.195H76.292l.074-.2.1-.271L79.875,67.2h3.931l3.454,9.211.115.311.061.156Zm10.8-3.826-4.878.029v3.8H91.693V67.2h5.533c2.752,0,3.946,1.063,3.946,2.825A3.245,3.245,0,0,1,97.765,73.05Zm8.689,3.83H105.26V67.2h1.194Zm15.661-9.486L118.6,76.883H114.67l-3.456-9.221-.115-.308-.061-.156h1.267l3.185,8.5h2.288l3.144-8.5h1.268Zm13.356,9.482h-.793l-1.2-3.195h-6.232l-1.181,3.195H124.8l.075-.2.1-.271,3.407-9.211h3.931l3.455,9.211.115.311.061.156Z"></path></g></svg>